<svg preserveAspectRatio="none" width="100%" height="100%" overflow="visible" style="display: block;" viewBox="0 0 21.2167 25.8455" fill="none" xmlns="http://www.w3.org/2000/svg">
<g id="Group">
<path id="Vector" d="M7.41172 1.15899e-08C5.47817 -0.000108563 3.62265 0.762637 2.24816 2.12256C0.873672 3.48248 0.0912064 5.32976 0.070716 7.2632L0 14.2612C0 20.658 4.74901 25.8455 10.6084 25.8455C16.4677 25.8455 21.2167 20.658 21.2167 14.2612L21.1955 6.83534C21.1908 5.02087 20.4668 3.28232 19.1821 2.00095C17.8974 0.719584 16.157 -6.02725e-06 14.3425 1.15899e-08H7.41172Z" fill="var(--fill-0, #EBB084)"/>
<path id="Vector_2" opacity="0.49" d="M21.2027 8.82618V6.83534C21.198 5.02087 20.4739 3.28232 19.1892 2.00095C17.9046 0.719584 16.1641 -6.02725e-06 14.3497 1.15899e-08H7.41179C5.47824 -0.000108563 3.62273 0.762637 2.24824 2.12256C0.873747 3.48248 0.091282 5.32976 0.0707916 7.2632V7.43294C4.18684 6.50294 11.4783 5.82754 21.2027 8.82618Z" fill="var(--fill-0, #FD7058)"/>
<g id="Group_2">
<g id="Group_3">
<path id="Vector_3" d="M16.0786 11.2027C16.0786 12.0372 15.7957 12.7126 15.4456 12.7126C15.0955 12.7126 14.8162 12.0372 14.8162 11.2027C14.8162 10.3682 15.0991 9.69631 15.4456 9.69631C15.7921 9.69631 16.0786 10.3717 16.0786 11.2027Z" fill="var(--fill-0, #25110D)"/>
<path id="Vector_4" d="M18.4124 9.55493C18.4937 9.50543 15.0036 7.30242 12.8501 7.38022C12.8253 7.41558 12.8925 5.45656 15.7497 6.48204C18.522 7.62421 18.3735 9.58676 18.4124 9.55493Z" fill="var(--fill-0, #1E1C36)"/>
</g>
<g id="Group_4">
<path id="Vector_5" d="M5.78488 12.7091C6.1325 12.7091 6.41431 12.0347 6.41431 11.2027C6.41431 10.3707 6.1325 9.69631 5.78488 9.69631C5.43725 9.69631 5.15545 10.3707 5.15545 11.2027C5.15545 12.0347 5.43725 12.7091 5.78488 12.7091Z" fill="var(--fill-0, #25110D)"/>
<path id="Vector_6" d="M2.49629 9.55493C2.41496 9.50543 5.90511 7.30242 8.05861 7.38022C8.0869 7.41558 8.01618 5.45656 5.15899 6.48204C2.3902 7.62421 2.52104 9.58676 2.49629 9.55493Z" fill="var(--fill-0, #1E1C36)"/>
</g>
<g id="Group_5">
<path id="Vector_7" d="M4.27152 16.3226C4.22971 16.3234 4.18838 16.3136 4.15129 16.2943C4.08489 16.2623 4.03387 16.2052 4.00936 16.1357C3.98485 16.0661 3.98884 15.9897 4.02045 15.923L4.90095 14.1019C4.91604 14.0675 4.93793 14.0364 4.96532 14.0107C4.9927 13.9849 5.02501 13.9649 5.0603 13.9519C5.0956 13.9389 5.13316 13.9331 5.17073 13.935C5.2083 13.9369 5.24509 13.9463 5.27893 13.9627C5.31276 13.9792 5.34292 14.0023 5.36761 14.0307C5.3923 14.0591 5.411 14.0921 5.42259 14.1279C5.43418 14.1637 5.43843 14.2015 5.43508 14.2389C5.43172 14.2764 5.42084 14.3128 5.40308 14.3459L4.52258 16.167C4.50013 16.2144 4.46452 16.2542 4.41998 16.2818C4.37545 16.3094 4.3239 16.3236 4.27152 16.3226V16.3226Z" fill="var(--fill-0, #FD5F44)"/>
<path id="Vector_8" d="M2.51398 16.3226C2.47212 16.3238 2.43068 16.3141 2.39375 16.2943C2.36055 16.2788 2.33078 16.2568 2.30617 16.2297C2.28156 16.2025 2.2626 16.1707 2.25042 16.1362C2.23824 16.1016 2.23307 16.0649 2.23521 16.0284C2.23736 15.9918 2.24678 15.956 2.26292 15.923L3.14341 14.1019C3.1585 14.0675 3.1804 14.0364 3.20778 14.0107C3.23516 13.9849 3.26747 13.9649 3.30276 13.9519C3.33806 13.9389 3.37562 13.9331 3.41319 13.935C3.45076 13.9369 3.48757 13.9463 3.5214 13.9627C3.55523 13.9792 3.58538 14.0023 3.61007 14.0307C3.63476 14.0591 3.65346 14.0921 3.66505 14.1279C3.67665 14.1637 3.68089 14.2015 3.67754 14.2389C3.67418 14.2764 3.66331 14.3128 3.64554 14.3459L2.76504 16.167C2.74191 16.2138 2.70613 16.2532 2.66175 16.2807C2.61738 16.3082 2.56618 16.3227 2.51398 16.3226V16.3226Z" fill="var(--fill-0, #FD5F44)"/>
</g>
<g id="Group_6">
<path id="Vector_9" d="M16.7897 16.3226C16.7375 16.3227 16.6863 16.3082 16.6419 16.2807C16.5976 16.2532 16.5618 16.2138 16.5386 16.167L15.6581 14.3459C15.6404 14.3128 15.6295 14.2764 15.6261 14.2389C15.6228 14.2015 15.627 14.1637 15.6386 14.1279C15.6502 14.0921 15.6689 14.0591 15.6936 14.0307C15.7183 14.0023 15.7485 13.9792 15.7823 13.9627C15.8161 13.9463 15.8529 13.9369 15.8905 13.935C15.928 13.9331 15.9656 13.9389 16.0009 13.9519C16.0362 13.9649 16.0685 13.9849 16.0959 14.0107C16.1233 14.0364 16.1452 14.0675 16.1603 14.1019L17.0408 15.923C17.0569 15.956 17.0663 15.9918 17.0685 16.0284C17.0706 16.0649 17.0654 16.1016 17.0533 16.1362C17.0411 16.1707 17.0221 16.2025 16.9975 16.2297C16.9729 16.2568 16.9431 16.2788 16.9099 16.2943C16.8728 16.3136 16.8315 16.3234 16.7897 16.3226V16.3226Z" fill="var(--fill-0, #FD5F44)"/>
<path id="Vector_10" d="M18.5472 16.3226C18.495 16.3227 18.4438 16.3082 18.3995 16.2807C18.3551 16.2532 18.3193 16.2138 18.2962 16.167L17.4192 14.3459C17.3872 14.2792 17.3826 14.2026 17.4064 14.1325C17.4302 14.0624 17.4805 14.0045 17.5465 13.9711C17.6138 13.9402 17.6904 13.9366 17.7603 13.961C17.8302 13.9854 17.8879 14.0359 17.9213 14.1019L18.7983 15.923C18.8146 15.9557 18.8242 15.9913 18.8266 16.0277C18.829 16.0642 18.8241 16.1007 18.8122 16.1353C18.8004 16.1698 18.7818 16.2016 18.7576 16.2289C18.7333 16.2563 18.7039 16.2785 18.671 16.2943C18.6328 16.314 18.5902 16.3238 18.5472 16.3226V16.3226Z" fill="var(--fill-0, #FD5F44)"/>
</g>
<path id="Vector_11" d="M8.11886 18.349C7.98449 18.2606 7.86073 18.1722 7.76525 18.0874C7.72688 18.0674 7.69333 18.0394 7.66693 18.0051C7.64053 17.9709 7.62193 17.9313 7.61242 17.8891C7.60292 17.8469 7.60274 17.8032 7.61189 17.7609C7.62105 17.7186 7.63932 17.6789 7.66543 17.6444C7.69154 17.61 7.72487 17.5816 7.76307 17.5613C7.80127 17.5411 7.84343 17.5294 7.88661 17.5272C7.92979 17.5249 7.97295 17.5321 8.01306 17.5482C8.05318 17.5644 8.08929 17.5891 8.11886 17.6206C8.22141 17.7019 10.6154 19.5761 12.3198 17.8717C12.3761 17.8155 12.4524 17.784 12.5319 17.784C12.6115 17.784 12.6878 17.8155 12.7441 17.8717C12.7718 17.8993 12.7938 17.9321 12.8088 17.9682C12.8238 18.0043 12.8315 18.043 12.8315 18.0821C12.8315 18.1212 12.8238 18.1599 12.8088 18.196C12.7938 18.2321 12.7718 18.2649 12.7441 18.2925C11.2625 19.7812 9.24689 19.0846 8.11886 18.349Z" fill="var(--fill-0, #FD5F44)"/>
</g>
</g>
</svg>
