<svg preserveAspectRatio="none" width="100%" height="100%" overflow="visible" style="display: block;" viewBox="0 0 28.1824 26.2022" fill="none" xmlns="http://www.w3.org/2000/svg">
<g id="Group">
<path id="Vector" d="M26.9364 12.093C28.3156 9.08285 29.9914 3.76258 23.1885 0.662832C23.2367 0.686968 20.2783 -1.80594 15.0201 2.73163C13.3444 4.20393 11.0963 4.84871 8.96546 4.14531C6.83459 3.44192 4.04171 3.51433 2.49011 7.37264C2.10983 8.2473 1.94318 9.19991 2.00394 10.1517C1.51088 9.53453 0.838523 9.11732 0.210986 10.1172C-0.29587 10.8999 0.121334 14.3652 1.34882 17.4994C1.34882 17.4994 2.06256 25.0298 5.48642 26.2022L8.86546 21.5681C11.6687 21.5025 15.1581 21.4094 18.0303 21.3474L21.5713 26.2022C24.0229 25.3643 25.0883 21.2888 25.4986 19.0234L25.8986 18.5786C27.4778 16.834 28.0777 14.4135 27.1088 12.4136C27.0502 12.2998 26.995 12.1998 26.9364 12.093Z" fill="var(--fill-0, #420E2F)"/>
<path id="Vector_2" d="M8.96545 4.13715C6.84148 3.43031 4.04171 3.51306 2.47287 7.36793C2.3169 7.74636 2.19348 8.13741 2.10393 8.53681L2.19358 8.75058C2.19358 8.75058 4.26928 3.89579 8.96545 4.13715Z" fill="var(--fill-0, #7C1A59)"/>
<path id="Vector_3" d="M23.1782 0.662016C23.2161 0.662016 21.43 -0.82752 18.1544 0.662016C18.7958 0.662016 26.9779 0.744768 28.033 8.76482C28.5364 5.99262 27.8778 2.79978 23.1782 0.662016Z" fill="var(--fill-0, #7C1A59)"/>
</g>
</svg>
