<svg preserveAspectRatio="none" width="100%" height="100%" overflow="visible" style="display: block;" viewBox="0 0 3.23036 2.29546" fill="none" xmlns="http://www.w3.org/2000/svg">
<g id="Group">
<path id="Vector" d="M2.06845 2.29542C2.02625 2.29608 1.98438 2.28794 1.94551 2.27153C1.9127 2.25687 1.88321 2.23574 1.85879 2.20939C1.83437 2.18304 1.81553 2.15202 1.8034 2.11821C1.79128 2.08439 1.78612 2.04846 1.78824 2.0126C1.79036 1.97674 1.79971 1.94168 1.81573 1.90952L2.70367 0.15072C2.73858 0.0859687 2.79703 0.0371122 2.86694 0.0142311C2.93686 -0.00864993 3.01289 -0.00380177 3.07933 0.0277799C3.141 0.0567912 3.189 0.108617 3.21321 0.172325C3.23742 0.236033 3.23595 0.306648 3.20911 0.369294L2.32117 2.12809C2.2992 2.17704 2.26379 2.21876 2.21906 2.24838C2.17432 2.278 2.12209 2.29431 2.06845 2.29542V2.29542Z" fill="var(--fill-0, #FF8282)"/>
<path id="Vector_2" d="M0.282279 2.29542C0.240082 2.29608 0.198211 2.28794 0.159334 2.27153C0.126553 2.25682 0.097039 2.2357 0.0725275 2.20943C0.048016 2.18316 0.0290035 2.15226 0.0165969 2.11854C0.00419036 2.08482 -0.00135878 2.04896 0.000281024 2.01307C0.00192083 1.97717 0.0107141 1.94197 0.0261436 1.90952L0.917494 0.15072C0.952406 0.0859687 1.01086 0.0371122 1.08077 0.0142311C1.15069 -0.00864993 1.22672 -0.00380177 1.29316 0.0277799C1.35483 0.0567912 1.40282 0.108617 1.42703 0.172325C1.45124 0.236033 1.44977 0.306648 1.42293 0.369294L0.535001 2.12809C0.513033 2.17704 0.477621 2.21876 0.432884 2.24838C0.388148 2.278 0.335922 2.29431 0.282279 2.29542Z" fill="var(--fill-0, #FF8282)"/>
</g>
</svg>
