<svg preserveAspectRatio="none" width="100%" height="100%" overflow="visible" style="display: block;" viewBox="0 0 5.74275 2.15486" fill="none" xmlns="http://www.w3.org/2000/svg">
<path id="Vector" d="M2.07791 2.15023C1.45652 2.15085 0.838092 2.06464 0.240566 1.89409C0.154092 1.86733 0.0817764 1.80734 0.0395121 1.72729C-0.00275228 1.64725 -0.0115088 1.5537 0.0151659 1.4672C0.0283921 1.424 0.0500599 1.38384 0.0789131 1.34907C0.107766 1.3143 0.143231 1.28561 0.183255 1.26464C0.223278 1.24368 0.267067 1.23087 0.312078 1.22695C0.357089 1.22302 0.40243 1.22807 0.445476 1.2418C0.472797 1.2418 3.5191 2.17413 5.13104 0.131879C5.18675 0.060325 5.26859 0.0138317 5.35857 0.00262357C5.44856 -0.00858452 5.53931 0.0164045 5.61087 0.0721081C5.68242 0.127812 5.72892 0.20966 5.74012 0.299645C5.75133 0.38963 5.72634 0.48038 5.67063 0.551934C5.23735 1.07941 4.68699 1.49854 4.0633 1.776C3.43962 2.05345 2.75981 2.18159 2.07791 2.15023V2.15023Z" fill="var(--fill-0, #FF8282)"/>
</svg>
