<svg preserveAspectRatio="none" width="100%" height="100%" overflow="visible" style="display: block;" viewBox="0 0 20.7818 24.5642" fill="none" xmlns="http://www.w3.org/2000/svg">
<g id="Group">
<path id="Vector" d="M10.3929 24.5548C17.756 24.1416 20.7818 19.9034 20.7818 14.1626V7.72503C20.7822 6.71073 20.5828 5.70627 20.195 4.76905C19.8071 3.83182 19.2384 2.9802 18.5214 2.26282C17.8043 1.54544 16.9529 0.976363 16.0159 0.588102C15.0788 0.199841 14.0745 -9.92059e-08 13.0602 0H7.72231C3.4568 0 2.43909 2.40767 1.67069 8.46271C1.48285 9.93463 -0.0368817 11.789 0.000684814 14.1626C0.0519118 19.9034 5.91912 24.8075 10.3929 24.5548Z" fill="var(--fill-0, #FDBFA8)"/>
<path id="Vector_2" opacity="0.47" d="M10.1607 18.3734C10.1607 18.3734 12.5513 18.5886 13.6612 17.1611C13.6612 17.1611 13.7398 18.5271 12.5274 18.9062C11.315 19.2853 10.1607 18.3734 10.1607 18.3734Z" fill="var(--fill-0, #FF8282)"/>
</g>
</svg>
