<svg preserveAspectRatio="none" width="100%" height="100%" overflow="visible" style="display: block;" viewBox="0 0 7.25206 8.26984" fill="none" xmlns="http://www.w3.org/2000/svg">
<g id="Group">
<path id="Vector" d="M6.65184 2.54745C7.75493 4.65801 7.29388 7.07934 5.6273 7.95362C3.96071 8.82789 1.70331 7.82725 0.600218 5.7167C-0.502871 3.60614 -0.0418277 1.18823 1.62476 0.313952C3.29134 -0.560323 5.54875 0.45739 6.65184 2.54745Z" fill="var(--fill-0, #FF8282)"/>
<path id="Vector_2" d="M5.68529 6.57717C5.68529 6.49179 5.66138 6.41665 5.65113 6.33469C5.65113 6.39616 5.67162 6.44397 5.67846 6.48495C5.67907 6.12401 5.61666 5.76573 5.49404 5.42626C5.2696 4.42188 4.74784 3.50839 3.99675 2.80481C3.24566 2.10124 2.30006 1.6402 1.28318 1.48178C2.62522 2.25451 3.78898 3.30189 4.69831 4.5554C3.4996 4.06704 1.64177 5.10524 1.64177 5.10524C3.84453 4.52125 4.84516 5.00279 5.30621 5.56287C5.46964 5.88593 5.59678 6.22611 5.68529 6.57717Z" fill="var(--fill-0, #FF4F4F)"/>
</g>
</svg>
