<svg preserveAspectRatio="none" width="100%" height="100%" overflow="visible" style="display: block;" viewBox="0 0 16.1787 9.8852" fill="none" xmlns="http://www.w3.org/2000/svg">
<g id="Group">
<path id="Vector" d="M9.649 8.04196C9.649 9.0212 8.98699 9.81424 8.17326 9.81424C7.35953 9.81424 6.69406 9.0212 6.69406 8.04196C6.69406 7.06273 7.35608 5.83525 8.17326 5.83525C8.99044 5.83525 9.649 7.06273 9.649 8.04196Z" fill="var(--fill-0, #FF6A68)"/>
<g id="Group_2">
<path id="Vector_2" d="M13.4962 4.8949C13.4962 5.70518 13.2238 6.36375 12.8825 6.36375C12.5411 6.36375 12.2687 5.70518 12.2687 4.8949C12.2687 4.08462 12.5446 3.4226 12.8825 3.4226C13.2204 3.4226 13.4962 4.08117 13.4962 4.8949Z" fill="var(--fill-0, #25110D)"/>
<path id="Vector_3" d="M15.7757 3.28422C15.855 3.23939 12.4518 1.08783 10.352 1.16714C10.3278 1.20162 10.3933 -0.712026 13.1793 0.291343C15.8826 1.4016 15.7515 3.31525 15.7757 3.28422Z" fill="var(--fill-0, #420E2F)"/>
</g>
<g id="Group_3">
<path id="Vector_4" d="M3.4591 6.36245C3.79806 6.36245 4.07285 5.70482 4.07285 4.8936C4.07285 4.08238 3.79806 3.42475 3.4591 3.42475C3.12014 3.42475 2.84536 4.08238 2.84536 4.8936C2.84536 5.70482 3.12014 6.36245 3.4591 6.36245Z" fill="var(--fill-0, #25110D)"/>
<path id="Vector_5" d="M0.256231 3.28428C0.176927 3.23946 3.58011 1.0879 5.67994 1.1672C5.70752 1.20168 5.63856 -0.711961 2.85257 0.291407C0.15279 1.40166 0.280367 3.31531 0.256231 3.28428Z" fill="var(--fill-0, #420E2F)"/>
</g>
<g id="Group_4">
<path id="Vector_6" d="M1.98692 9.8837C1.94658 9.88401 1.90663 9.87578 1.86969 9.85956C1.8047 9.82759 1.7549 9.77134 1.73103 9.70296C1.70716 9.63457 1.71114 9.55955 1.74212 9.49408L2.60067 7.71836C2.6339 7.65632 2.68987 7.60956 2.75682 7.58787C2.82377 7.56618 2.89652 7.57124 2.95982 7.602C3.02312 7.63276 3.07206 7.68683 3.09638 7.75287C3.1207 7.81891 3.11852 7.8918 3.09029 7.95627L2.23174 9.73199C2.20951 9.77788 2.17469 9.81652 2.13134 9.84338C2.088 9.87024 2.03791 9.88422 1.98692 9.8837Z" fill="var(--fill-0, #FF6A68)"/>
<path id="Vector_7" d="M0.273499 9.8837C0.227241 9.88447 0.181571 9.8733 0.140895 9.85126C0.100218 9.82922 0.0659133 9.79706 0.0412997 9.75788C0.0166862 9.71871 0.00259664 9.67385 0.000388418 9.62764C-0.0018198 9.58143 0.00792769 9.53542 0.0286938 9.49408L0.887243 7.71836C0.92048 7.65632 0.976443 7.60956 1.0434 7.58787C1.11035 7.56618 1.18309 7.57124 1.2464 7.602C1.3097 7.63276 1.35863 7.68683 1.38296 7.75287C1.40728 7.81891 1.4051 7.8918 1.37686 7.95627L0.518315 9.73199C0.495762 9.77763 0.460864 9.81604 0.417593 9.84285C0.374323 9.86967 0.324404 9.88382 0.273499 9.8837Z" fill="var(--fill-0, #FF6A68)"/>
</g>
<g id="Group_5">
<path id="Vector_8" d="M14.1931 9.88507C14.1422 9.88518 14.0923 9.87104 14.049 9.84422C14.0058 9.81741 13.9709 9.77899 13.9483 9.73336L13.0898 7.95764C13.0615 7.89317 13.0594 7.82028 13.0837 7.75424C13.108 7.6882 13.1569 7.63413 13.2202 7.60337C13.2835 7.57261 13.3563 7.56754 13.4232 7.58924C13.4902 7.61093 13.5461 7.65769 13.5794 7.71973L14.4379 9.49544C14.4689 9.56091 14.4729 9.63594 14.449 9.70432C14.4252 9.77271 14.3754 9.82896 14.3104 9.86093C14.2734 9.87715 14.2335 9.88538 14.1931 9.88507V9.88507Z" fill="var(--fill-0, #FF6A68)"/>
<path id="Vector_9" d="M15.9067 9.88516C15.8558 9.88528 15.8059 9.87113 15.7626 9.84432C15.7193 9.8175 15.6844 9.77909 15.6619 9.73345L14.8068 7.95773C14.7909 7.92585 14.7816 7.89114 14.7792 7.85561C14.7769 7.82009 14.7817 7.78446 14.7932 7.75078C14.8047 7.7171 14.8229 7.68605 14.8465 7.65943C14.8701 7.63281 14.8988 7.61114 14.9309 7.5957C14.9631 7.57978 14.998 7.57036 15.0338 7.56798C15.0696 7.5656 15.1055 7.57032 15.1394 7.58185C15.1734 7.59338 15.2047 7.61151 15.2317 7.63519C15.2586 7.65886 15.2806 7.68762 15.2964 7.71982L16.1515 9.49554C16.1827 9.56059 16.1872 9.63528 16.164 9.70361C16.1408 9.77193 16.0918 9.82844 16.0274 9.86103C15.9893 9.87762 15.9482 9.88586 15.9067 9.88516V9.88516Z" fill="var(--fill-0, #FF6A68)"/>
</g>
</g>
</svg>
