<svg preserveAspectRatio="none" width="100%" height="100%" overflow="visible" style="display: block;" viewBox="0 0 37.5819 15.8208" fill="none" xmlns="http://www.w3.org/2000/svg">
<g id="Group">
<path id="Vector" d="M30.3081 10.4211C23.8901 7.83976 21.779 4.63249 22.3271 0.0143142H15.2548C15.8029 4.63249 13.6919 7.83976 7.27381 10.4211C0.855745 13.0025 0 15.8208 0 15.8208H37.5819C37.5819 15.8208 36.7227 12.9884 30.3081 10.4211Z" fill="var(--fill-0, #E83F53)"/>
<path id="Vector_2" d="M10.6755 8.74864L10.8665 8.90071C13.2781 10.8279 16.0186 11.8463 18.798 11.8463C21.7009 11.8003 24.5003 10.7606 26.7295 8.90071L26.9205 8.74864C26.7012 8.61781 26.4891 8.48344 26.2875 8.34907C24.0633 10.1171 21.5138 11.1391 18.798 11.1391C16.0823 11.1391 13.5327 10.1242 11.3085 8.34907C11.107 8.48344 10.8948 8.61781 10.6755 8.74864Z" fill="var(--fill-0, white)"/>
<g id="Group_2">
<path id="Vector_3" d="M11.305 8.3488C13.5292 10.1169 16.0787 11.1388 18.7945 11.1388C21.5102 11.1388 24.0598 10.1239 26.284 8.3488C22.9989 6.13872 21.9098 3.46894 22.3235 0H15.2513C15.6827 3.46894 14.5936 6.13872 11.305 8.3488Z" fill="var(--fill-0, #FD9A8B)"/>
<path id="Vector_4" d="M22.327 0H15.2548C15.5306 2.3197 15.131 4.28225 13.8403 5.9902C15.3484 6.83618 17.0475 7.28284 18.7766 7.28779C20.5057 7.29274 22.2074 6.85582 23.7203 6.01848C22.4543 4.30346 22.0477 2.33384 22.327 0Z" fill="var(--fill-0, #FD7058)"/>
</g>
</g>
</svg>
