<svg preserveAspectRatio="none" width="100%" height="100%" overflow="visible" style="display: block;" viewBox="0 0 7.52622 8.58923" fill="none" xmlns="http://www.w3.org/2000/svg">
<g id="Group">
<path id="Vector" d="M0.623041 2.64855C-0.522663 4.84095 -0.0417504 7.35159 1.68388 8.26038C3.40951 9.16916 5.75748 8.12954 6.90318 5.94068C8.04889 3.75182 7.56797 1.23764 5.84234 0.328852C4.11671 -0.579932 1.76875 0.459688 0.623041 2.64855Z" fill="var(--fill-0, #FD8977)"/>
<path id="Vector_2" d="M1.62734 6.83193C1.62734 6.74352 1.6521 6.66573 1.65918 6.58086C1.65918 6.64098 1.63796 6.69402 1.63442 6.73645C1.63379 6.36273 1.6984 5.99175 1.82536 5.64025C2.05845 4.5988 2.60027 3.65189 3.38002 2.92324C4.15977 2.19459 5.14118 1.7181 6.19601 1.55603C4.80767 2.35785 3.60301 3.44205 2.65988 4.73855C3.90814 4.22934 5.8424 5.30433 5.8424 5.30433C3.55452 4.69965 2.51492 5.20177 2.03755 5.78524C1.86247 6.11786 1.72488 6.46891 1.62734 6.83193V6.83193Z" fill="var(--fill-0, #FD5F47)"/>
</g>
</svg>
