<svg preserveAspectRatio="none" width="100%" height="100%" overflow="visible" style="display: block;" viewBox="0 0 7.33868 8.37607" fill="none" xmlns="http://www.w3.org/2000/svg">
<g id="Group">
<path id="Vector" d="M0.607514 2.58689C-0.509638 4.7212 -0.0407099 7.16928 1.64191 8.05541C3.32454 8.94155 5.61402 7.92784 6.73117 5.79352C7.84832 3.65921 7.37939 1.20768 5.69677 0.321548C4.01414 -0.564588 1.72467 0.44223 0.607514 2.58689Z" fill="var(--fill-0, #FF8482)"/>
<path id="Vector_2" d="M1.58663 6.65584C1.58663 6.56964 1.61077 6.49379 1.61767 6.41104C1.61767 6.4731 1.59698 6.52137 1.59353 6.56275C1.59291 6.19834 1.65592 5.83661 1.77972 5.49387C2.00766 4.47692 2.53751 3.55257 3.29983 2.84193C4.06215 2.1313 5.02137 1.66754 6.05179 1.51143C4.69636 2.29828 3.52159 3.36144 2.60379 4.63187C3.82094 4.1388 5.70699 5.187 5.70699 5.187C3.47614 4.59395 2.46242 5.08356 1.99694 5.65248C1.82383 5.9709 1.68624 6.30737 1.58663 6.65584Z" fill="var(--fill-0, #FF5B59)"/>
</g>
</svg>
