<svg preserveAspectRatio="none" width="100%" height="100%" overflow="visible" style="display: block;" viewBox="0 0 38.2856 36.8074" fill="none" xmlns="http://www.w3.org/2000/svg">
<g id="Group">
<path id="Vector" d="M0.234338 21.3133C0.55536 19.3291 0.900289 17.2834 1.97947 15.5861C2.94596 14.0663 4.53058 12.7003 4.43837 10.9005C4.39056 10.0126 3.92268 9.19294 3.8578 8.30159C3.75534 6.88773 4.79696 5.52167 6.14252 5.07429C6.65093 4.89556 7.1915 4.82688 7.72845 4.8728C8.26539 4.91873 8.78646 5.0782 9.25713 5.34067V5.29627C10.6744 1.01027 17.9042 -0.601669 21.7394 0.197473C23.8177 0.65473 25.741 1.64531 27.3201 3.07171C28.8992 4.4981 30.0796 6.31114 30.7452 8.33233C30.9791 9.2581 31.2641 10.1702 31.5989 11.0644C33.2485 14.8211 36.9129 14.4796 38.0877 20.5756C39.0747 25.7324 36.1957 31.3572 33.3065 33.2765C25.7556 38.2762 12.1156 36.9785 7.31733 35.3495C-1.18294 32.4705 -0.107176 23.4306 0.234338 21.3133Z" fill="var(--fill-0, #E83F53)"/>
<path id="Vector_2" d="M2.76148 23.451C2.76148 23.451 2.2697 29.6529 5.81461 34.721C6.29881 34.9593 6.79855 35.1647 7.31043 35.3357C11.6921 36.8247 23.447 38.0302 31.2164 34.4239C32.924 31.6371 33.6924 27.9761 33.0162 23.4374L2.76148 23.451Z" fill="var(--fill-0, #BF2133)"/>
<path id="Vector_3" d="M21.0154 2.00076C27.2685 2.99798 31.049 9.28866 31.049 9.28866C30.9637 8.96763 30.8749 8.64661 30.7758 8.33242C30.1073 6.31102 28.9237 4.49868 27.3415 3.074C25.7593 1.64933 23.8332 0.661481 21.753 0.207812C17.9178 -0.59133 10.688 1.02061 9.27073 5.30661V5.351C9.27073 5.351 14.7486 1.00012 21.0154 2.00076Z" fill="var(--fill-0, #FF7081)"/>
<path id="Vector_4" d="M6.14253 5.07442C5.5639 5.2718 5.04885 5.62089 4.65117 6.08525C4.25349 6.54961 3.98776 7.11222 3.88172 7.71433C5.4109 6.46649 7.24098 5.64213 9.18883 5.32373C8.72639 5.07242 8.21657 4.92043 7.692 4.8775C7.16744 4.83457 6.63968 4.90164 6.14253 5.07442Z" fill="var(--fill-0, #FF7081)"/>
</g>
</svg>
