<svg preserveAspectRatio="none" width="100%" height="100%" overflow="visible" style="display: block;" viewBox="0 0 15.1939 6.48554" fill="none" xmlns="http://www.w3.org/2000/svg">
<g id="Group">
<path id="Vector" d="M2.52036 5.0307C2.52036 5.83326 2.80382 6.48554 3.15558 6.48554C3.50734 6.48554 3.80787 5.83667 3.80787 5.0307C3.80787 4.22473 3.52442 3.57243 3.17266 3.57585C2.8209 3.57926 2.52036 4.22473 2.52036 5.0307Z" fill="var(--fill-0, #2E230E)"/>
<path id="Vector_2" d="M0 3.30283C0 3.30283 3.26487 1.54745 5.01683 1.3323C4.92918 1.07419 4.78876 0.83715 4.6045 0.636275C4.42023 0.4354 4.19616 0.275092 3.94656 0.165548C3.69695 0.056003 3.42727 -0.000376003 3.15469 1.88714e-06C2.8821 0.000379777 2.61258 0.0575 2.36327 0.167736C1.69704 0.387594 1.11379 0.805577 0.691485 1.36581C0.269177 1.92604 0.0279339 2.60181 0 3.30283V3.30283Z" fill="var(--fill-0, #A31727)"/>
<path id="Vector_3" d="M15.1939 3.3029C15.1939 3.3029 11.929 1.54752 10.1771 1.33237C10.2652 1.07457 10.4058 0.837881 10.5902 0.637295C10.7745 0.436708 10.9985 0.276602 11.248 0.16712C11.4975 0.057637 11.767 0.00116261 12.0394 0.00128203C12.3118 0.00140145 12.5813 0.0581062 12.8306 0.167807C13.4969 0.387665 14.0801 0.805648 14.5024 1.36588C14.9247 1.92611 15.166 2.60189 15.1939 3.3029V3.3029Z" fill="var(--fill-0, #A31727)"/>
</g>
</svg>
