<svg preserveAspectRatio="none" width="100%" height="100%" overflow="visible" style="display: block;" viewBox="0 0 7.25206 8.26984" fill="none" xmlns="http://www.w3.org/2000/svg">
<g id="Group">
<path id="Vector" d="M0.600218 2.54745C-0.502871 4.65801 -0.0418277 7.07934 1.62476 7.95362C3.29134 8.82789 5.54875 7.82725 6.65184 5.7167C7.75493 3.60614 7.29388 1.18823 5.6273 0.313952C3.96071 -0.560323 1.70331 0.45739 0.600218 2.54745Z" fill="var(--fill-0, #FF8282)"/>
<path id="Vector_2" d="M1.57016 6.57717C1.57016 6.49179 1.59065 6.41665 1.6009 6.33469C1.58949 6.38417 1.5815 6.43438 1.57699 6.48495C1.57542 6.12423 1.63667 5.76598 1.75799 5.42626C1.98243 4.42188 2.50419 3.50839 3.25528 2.80481C4.00637 2.10124 4.95196 1.6402 5.96885 1.48178C4.62825 2.2565 3.46487 3.30354 2.55371 4.5554C3.75584 4.06704 5.61026 5.10524 5.61026 5.10524C3.4075 4.52125 2.40686 5.00279 1.94582 5.56287C1.78222 5.88549 1.65619 6.22582 1.57016 6.57717V6.57717Z" fill="var(--fill-0, #FF4F4F)"/>
</g>
</svg>
