<svg preserveAspectRatio="none" width="100%" height="100%" overflow="visible" style="display: block;" viewBox="0 0 5.81063 4.06534" fill="none" xmlns="http://www.w3.org/2000/svg">
<g id="Group">
<path id="Vector" d="M5.62369 0C5.74763 0.337925 5.81067 0.69515 5.80988 1.05509C5.82646 1.79058 5.56583 2.50541 5.07974 3.05763C4.59365 3.60984 3.91766 3.95904 3.186 4.0359C2.45435 4.11276 1.72055 3.91164 1.13032 3.47249C0.540096 3.03333 0.136614 2.38826 0 1.66538L5.62369 0Z" fill="var(--fill-0, #230F0B)"/>
<path id="Vector_2" d="M2.87613 4.06528C2.3947 4.06833 1.92029 3.94973 1.49693 3.72048C1.65534 3.05504 2.03716 2.46404 2.57869 2.04613C3.12022 1.62822 3.7887 1.40867 4.47256 1.42411C4.91294 1.42458 5.34847 1.51614 5.75176 1.69305C5.6179 2.35863 5.25894 2.95781 4.73523 3.38984C4.21152 3.82187 3.55502 4.06039 2.87613 4.06528Z" fill="var(--fill-0, #E8132C)"/>
</g>
</svg>
