<svg preserveAspectRatio="none" width="100%" height="100%" overflow="visible" style="display: block;" viewBox="0 0 25.3453 15.414" fill="none" xmlns="http://www.w3.org/2000/svg">
<g id="Group">
<path id="Vector" d="M24.5015 15.414C24.5015 15.414 8.87181 10.6968 0.042107 14.5229C0.042107 14.5229 -0.421122 7.39408 1.72531 5.04963C3.79394 2.78651 8.26713 0.579964 12.6873 0.728482C18.0551 0.908824 23.331 3.84735 24.0559 5.12035C26.6691 9.74207 24.5015 15.414 24.5015 15.414Z" fill="var(--fill-0, #0AC2B2)"/>
<path id="Vector_2" d="M6.66874 11.7576V13.0943C10.4064 12.8538 14.3633 13.2923 17.5989 13.851L17.7934 12.1112L11.9234 9.00296L6.66874 11.7576Z" fill="var(--fill-0, #078C81)"/>
<path id="Vector_3" d="M10.9016 0.739049C10.9016 1.14924 11.782 1.48164 12.8676 1.48164C13.9532 1.48164 14.8337 1.14924 14.8337 0.739049C14.8337 0.328858 13.9532 0 12.8676 0C11.782 0 10.9016 0.332394 10.9016 0.739049Z" fill="var(--fill-0, #078C81)"/>
<path id="Vector_4" d="M17.7934 12.1114C17.7934 12.1114 11.736 10.3433 6.66874 11.7577C6.66874 11.7577 7.37596 6.57025 11.7784 5.93729C16.1809 5.30432 17.7934 12.1114 17.7934 12.1114Z" fill="var(--fill-0, #1E1C36)"/>
</g>
</svg>
