<svg preserveAspectRatio="none" width="100%" height="100%" overflow="visible" style="display: block;" viewBox="0 0 35.1383 14.7842" fill="none" xmlns="http://www.w3.org/2000/svg">
<g id="Group">
<path id="Vector" d="M6.80295 9.73321C12.8068 7.31871 14.7807 4.32022 14.2684 6.98608e-05H20.8665C20.3542 4.32022 22.3316 7.31871 28.332 9.73321C34.3324 12.1477 35.1383 14.7842 35.1383 14.7842H0C0 14.7842 0.802556 12.1477 6.80295 9.73321Z" fill="var(--fill-0, #FFDF57)"/>
<g id="Group_2">
<path id="Vector_2" d="M20.8664 6.98608e-05H14.2684C14.6406 3.14199 13.6946 5.58382 10.8532 7.61241C11.7371 8.55771 12.801 9.3167 13.9825 9.84477C15.1639 10.3728 16.4391 10.6593 17.7329 10.6873C19.0267 10.7153 20.3131 10.4843 21.5163 10.0078C22.7195 9.53137 23.8153 8.8191 24.7392 7.91293C21.5392 5.82629 20.4771 3.29909 20.8664 6.98608e-05Z" fill="var(--fill-0, #FFA3A3)"/>
<path id="Vector_3" d="M18.3802 0H14.282C14.5245 2.04908 14.2069 3.78397 13.1755 5.31053C14.5171 6.04081 16.0266 6.407 17.5537 6.37264C19.1098 6.30477 20.6479 6.01142 22.1197 5.50178C20.9859 3.9274 20.6308 2.12421 20.8801 0H18.3802Z" fill="var(--fill-0, #FF8282)"/>
</g>
</g>
</svg>
