<svg preserveAspectRatio="none" width="100%" height="100%" overflow="visible" style="display: block;" viewBox="0 0 35.5041 14.9264" fill="none" xmlns="http://www.w3.org/2000/svg">
<g id="Group">
<path id="Vector" d="M28.6076 9.8268C22.5495 7.38907 20.5531 4.36172 21.0703 0H14.4156C14.9328 4.36172 12.9365 7.38907 6.87832 9.8268C0.820182 12.2645 0.00644534 14.9264 0.00644534 14.9264H35.5036C35.5036 14.9264 34.6726 12.2645 28.6076 9.8268Z" fill="var(--fill-0, #FF8482)"/>
<path id="Vector_2" d="M17.702 7.10261C19.4007 7.10375 21.0733 6.68442 22.5706 5.88201C21.2293 4.22008 20.8052 2.29609 21.0776 0.0204102H14.4161C14.6885 2.32712 14.2575 4.26145 12.8955 5.93373C14.3792 6.70725 16.0288 7.10841 17.702 7.10261Z" fill="var(--fill-0, #FF5B59)"/>
<path id="Vector_3" d="M28.6081 9.82728C26.8366 9.17084 25.1822 8.23365 23.7085 7.05164L18.1261 12.2236L11.8335 6.97923C10.6371 8.01363 9.00962 8.95493 6.87186 9.81349C0.813726 12.2512 0 14.9131 0 14.9131H35.5041C35.5041 14.9131 34.6731 12.265 28.6081 9.82728Z" fill="var(--fill-0, #6F87ED)"/>
</g>
</svg>
