<svg preserveAspectRatio="none" width="100%" height="100%" overflow="visible" style="display: block;" viewBox="0 0 7.33716 8.37607" fill="none" xmlns="http://www.w3.org/2000/svg">
<g id="Group">
<path id="Vector" d="M6.73117 2.58689C7.84487 4.7212 7.37939 7.16928 5.69677 8.05541C4.01414 8.94155 1.72467 7.92784 0.607514 5.79352C-0.509638 3.65921 -0.0407099 1.20768 1.64191 0.321548C3.32454 -0.564588 5.61402 0.44223 6.73117 2.58689Z" fill="var(--fill-0, #FF8482)"/>
<path id="Vector_2" d="M5.74818 6.65584C5.74818 6.56964 5.72749 6.49379 5.71715 6.41104C5.72866 6.461 5.73673 6.51169 5.74128 6.56275C5.74287 6.19855 5.68103 5.83686 5.55854 5.49387C5.33104 4.47789 4.80222 3.55423 4.04123 2.84369C3.28025 2.13315 2.32254 1.66882 1.29336 1.51143C2.6488 2.29828 3.82357 3.36144 4.74137 4.63187C3.52767 4.1388 1.63816 5.187 1.63816 5.187C3.86557 4.59395 4.87929 5.08356 5.34477 5.65248C5.5174 5.9703 5.65276 6.30698 5.74818 6.65584V6.65584Z" fill="var(--fill-0, #FF5B59)"/>
</g>
</svg>
