<svg preserveAspectRatio="none" width="100%" height="100%" overflow="visible" style="display: block;" viewBox="0 0 2.39743 3.76852" fill="none" xmlns="http://www.w3.org/2000/svg">
<path id="Vector" d="M2.39401 2.47938C2.40646 2.64395 2.38479 2.80931 2.33037 2.96512C2.27594 3.12092 2.18993 3.26381 2.07772 3.38483C1.96551 3.50585 1.82951 3.60239 1.67826 3.66841C1.527 3.73444 1.36375 3.76852 1.19871 3.76852C1.03368 3.76852 0.870417 3.73444 0.719163 3.66841C0.567908 3.60239 0.431918 3.50585 0.319707 3.38483C0.207497 3.26381 0.121484 3.12092 0.0670583 2.96512C0.0126325 2.80931 -0.00903357 2.64395 0.00341533 2.47938C0.00341533 1.79635 0.53959 0 1.20213 0C1.86466 0 2.39401 1.80318 2.39401 2.47938Z" fill="var(--fill-0, #FF8282)"/>
</svg>
