<svg preserveAspectRatio="none" width="100%" height="100%" overflow="visible" style="display: block;" viewBox="0 0 18 17.9999" fill="none" xmlns="http://www.w3.org/2000/svg">
<g id="Group">
<path id="Vector" d="M9.00003 1.62163C11.4031 1.62163 11.6878 1.63081 12.6368 1.67411C13.5143 1.71412 13.9908 1.86074 14.308 1.98399C14.7281 2.14725 15.0279 2.34228 15.3428 2.6572C15.6577 2.97215 15.8528 3.27196 16.016 3.69206C16.1393 4.00919 16.2859 4.48573 16.3259 5.36322C16.3692 6.31223 16.3784 6.59689 16.3784 8.99996C16.3784 11.4031 16.3692 11.6877 16.3259 12.6367C16.2859 13.5142 16.1393 13.9908 16.016 14.3079C15.8528 14.728 15.6577 15.0278 15.3428 15.3427C15.0279 15.6577 14.7281 15.8527 14.308 16.016C13.9908 16.1392 13.5143 16.2858 12.6368 16.3259C11.6879 16.3692 11.4033 16.3783 9.00003 16.3783C6.59674 16.3783 6.31215 16.3692 5.36324 16.3259C4.48575 16.2858 4.00921 16.1392 3.69207 16.016C3.27197 15.8527 2.97216 15.6577 2.65724 15.3427C2.34232 15.0278 2.14726 14.728 1.984 14.3079C1.86074 13.9908 1.71412 13.5142 1.67411 12.6367C1.63081 11.6877 1.62163 11.4031 1.62163 8.99996C1.62163 6.59689 1.63081 6.31223 1.67411 5.36322C1.71412 4.48573 1.86074 4.00919 1.984 3.69206C2.14726 3.27196 2.34229 2.97215 2.65724 2.65723C2.97216 2.34228 3.27197 2.14725 3.69207 1.98399C4.00921 1.86074 4.48575 1.71412 5.36324 1.67411C6.31225 1.63081 6.59692 1.62163 9.00003 1.62163ZM9.00003 1.31069e-05C6.55576 1.31069e-05 6.24927 0.0103735 5.28932 0.0541729C4.33138 0.0978651 3.67714 0.25002 3.10467 0.472482C2.51284 0.702482 2.01093 1.01022 1.51056 1.51056C1.01022 2.01093 0.702484 2.51283 0.472519 3.10466C0.25002 3.67712 0.0978652 4.33136 0.0541729 5.28931C0.0103733 6.24925 1.29188e-05 6.55574 1.29188e-05 8.99996C1.29188e-05 11.4442 0.0103733 11.7507 0.0541729 12.7107C0.0978652 13.6686 0.25002 14.3228 0.472519 14.8953C0.702484 15.4871 1.01022 15.989 1.51056 16.4894C2.01093 16.9897 2.51284 17.2975 3.10467 17.5274C3.67714 17.7499 4.33138 17.9021 5.28932 17.9458C6.24927 17.9896 6.55576 17.9999 9.00003 17.9999C11.4443 17.9999 11.7508 17.9896 12.7107 17.9458C13.6686 17.9021 14.3229 17.7499 14.8954 17.5274C15.4872 17.2975 15.9891 16.9897 16.4895 16.4894C16.9898 15.989 17.2975 15.4871 17.5275 14.8953C17.75 14.3228 17.9022 13.6686 17.9459 12.7107C17.9896 11.7507 18 11.4442 18 8.99996C18 6.55574 17.9896 6.24925 17.9459 5.28931C17.9022 4.33136 17.75 3.67712 17.5275 3.10466C17.2975 2.51283 16.9898 2.01093 16.4895 1.51056C15.9891 1.01022 15.4872 0.702482 14.8954 0.472482C14.3229 0.25002 13.6686 0.0978651 12.7107 0.0541729C11.7508 0.0103735 11.4443 1.31069e-05 9.00003 1.31069e-05Z" fill="var(--fill-0, white)"/>
</g>
</svg>
