<svg preserveAspectRatio="none" width="100%" height="100%" overflow="visible" style="display: block;" viewBox="0 0 2.84127 2.45619" fill="none" xmlns="http://www.w3.org/2000/svg">
<g id="Group">
<path id="Vector" d="M1.16376 2.45283C1.11142 2.45353 1.0599 2.43991 1.01475 2.41342C0.969598 2.38694 0.932549 2.3486 0.907627 2.30257L0.0196953 0.54377C-0.00603925 0.480616 -0.0065739 0.410004 0.018205 0.346468C0.0429839 0.282933 0.0911886 0.231313 0.152885 0.202257C0.219324 0.170675 0.295354 0.165827 0.365268 0.188708C0.435183 0.211589 0.49364 0.260456 0.528552 0.325207L1.41649 2.084C1.43292 2.11627 1.44249 2.15159 1.44463 2.18774C1.44677 2.22389 1.44143 2.26009 1.42892 2.29408C1.41642 2.32806 1.39702 2.3591 1.37197 2.38524C1.34691 2.41138 1.31672 2.43207 1.28329 2.446C1.24438 2.45666 1.20364 2.45898 1.16376 2.45283V2.45283Z" fill="var(--fill-0, #FF8282)"/>
<path id="Vector_2" d="M2.56052 2.2993C2.50841 2.29905 2.45735 2.28461 2.41282 2.25754C2.3683 2.23046 2.33199 2.19177 2.3078 2.14561L1.41986 0.38682C1.4039 0.354917 1.3946 0.320098 1.39252 0.284485C1.39044 0.248871 1.39562 0.213214 1.40776 0.179669C1.4199 0.146124 1.43875 0.115394 1.46314 0.089361C1.48753 0.0633275 1.51696 0.0425329 1.54964 0.028235C1.61635 -0.00396625 1.69302 -0.00877392 1.76323 0.0148425C1.83344 0.0384589 1.89162 0.088621 1.92531 0.154593L2.81324 1.90997C2.82926 1.94212 2.83861 1.97719 2.84073 2.01305C2.84285 2.04892 2.8377 2.08483 2.82557 2.11865C2.81345 2.15247 2.79461 2.18349 2.77019 2.20983C2.74577 2.23618 2.71627 2.25732 2.68347 2.27197C2.64469 2.28911 2.6029 2.2984 2.56052 2.2993V2.2993Z" fill="var(--fill-0, #FF8282)"/>
</g>
</svg>
