<svg preserveAspectRatio="none" width="100%" height="100%" overflow="visible" style="display: block;" viewBox="0 0 27.7655 20" fill="none" xmlns="http://www.w3.org/2000/svg">
<path id="Vector" d="M23.9877 1H3.77778C3.53168 1 3.29423 1.09075 3.11086 1.25487C2.92748 1.419 2.81107 1.64498 2.78389 1.88957L1.00612 17.8896C0.990585 18.0293 1.00471 18.1708 1.04758 18.3048C1.09044 18.4387 1.16108 18.5621 1.25487 18.6669C1.34867 18.7717 1.46351 18.8555 1.59191 18.9129C1.7203 18.9703 1.85936 19 2 19H25.7655C25.9061 19 26.0452 18.9703 26.1736 18.9129C26.302 18.8555 26.4168 18.7717 26.5106 18.6669C26.6044 18.5621 26.675 18.4387 26.7179 18.3048C26.7608 18.1708 26.7749 18.0293 26.7594 17.8896L24.9816 1.88957C24.9544 1.64498 24.838 1.419 24.6546 1.25487C24.4712 1.09075 24.2338 1 23.9877 1Z" stroke="var(--stroke-0, white)" stroke-width="2" stroke-linecap="round" stroke-linejoin="round"/>
</svg>
