<svg preserveAspectRatio="none" width="100%" height="100%" overflow="visible" style="display: block;" viewBox="0 0 27 24" fill="none" xmlns="http://www.w3.org/2000/svg">
<path id="Vector" d="M13.5 23C13.5 23 1 16 1 7.50001C1.00025 5.99768 1.52082 4.5418 2.47318 3.37991C3.42555 2.21801 4.75093 1.42181 6.22399 1.12669C7.69704 0.831561 9.22685 1.05572 10.5533 1.76105C11.8798 2.46639 12.921 3.60936 13.5 4.99564L13.5 4.99565C14.079 3.60936 15.1202 2.46639 16.4467 1.76106C17.7731 1.05572 19.3029 0.831562 20.776 1.12669C22.2491 1.42181 23.5745 2.21801 24.5268 3.37991C25.4792 4.5418 25.9997 5.99768 26 7.50001C26 16 13.5 23 13.5 23Z" stroke="var(--stroke-0, white)" stroke-width="2" stroke-linecap="round" stroke-linejoin="round"/>
</svg>
