<svg preserveAspectRatio="none" width="100%" height="100%" overflow="visible" style="display: block;" viewBox="0 0 7.52205 8.58923" fill="none" xmlns="http://www.w3.org/2000/svg">
<g id="Group">
<path id="Vector" d="M6.89901 2.64855C8.04472 4.84095 7.5638 7.35159 5.83818 8.26038C4.11255 9.16916 1.76456 8.12954 0.622391 5.94068C-0.519777 3.75182 -0.0459364 1.23764 1.68323 0.328852C3.41239 -0.579932 5.76038 0.459688 6.89901 2.64855Z" fill="var(--fill-0, #FD8977)"/>
<path id="Vector_2" d="M5.8911 6.83194C5.8911 6.74353 5.86988 6.66574 5.85927 6.58088C5.87137 6.63205 5.87964 6.68406 5.88403 6.73647C5.88565 6.36296 5.82223 5.99202 5.69661 5.64027C5.46353 4.59882 4.92171 3.6519 4.14196 2.92325C3.36221 2.1946 2.38079 1.71811 1.32596 1.55605C2.71392 2.35838 3.91848 3.44248 4.86208 4.73856C3.61737 4.22936 1.67957 5.30434 1.67957 5.30434C3.96391 4.69966 5.00707 5.20179 5.48444 5.78525C5.65968 6.1174 5.79612 6.4686 5.8911 6.83194V6.83194Z" fill="var(--fill-0, #FD5F47)"/>
</g>
</svg>
